<?xml version="1.0" encoding="utf-8"?>
<!-- Generator: Adobe Illustrator 23.0.3, SVG Export Plug-In . SVG Version: 6.00 Build 0)  -->
<svg version="1.1" id="Calque_1" xmlns="http://www.w3.org/2000/svg" xmlns:xlink="http://www.w3.org/1999/xlink" x="0px" y="0px"
	 viewBox="0 0 260 249.7" style="enable-background:new 0 0 260 249.7;" xml:space="preserve">
<style type="text/css">
	.st0{fill:#E23F2F;}
	.st1{fill:#EE7130;}
	.st2{fill:#FDD330;}
	.st3{fill:#6EBC4C;}
	.st4{fill:#3C63AB;}
</style>
<path id="recrutement" class="st0" d="M206.4,24h-0.1l-14,107.2c0,0-0.1,1.3,1,1.6c1,0.3,1.5-0.5,1.5-0.5l59.8-88.5l0,0
	c0.1-0.2,0.3-0.4,0.4-0.6c8.6-12,5.9-28.8-6.2-37.5c-12-8.6-28.8-5.9-37.5,6.2C208.5,15.8,206.9,20,206.4,24z"/>
<path id="services" class="st1" d="M117,39.9L117,39.9l51.9,94.8c0,0,0.8,1.1,1.8,0.7c1.1-0.4,1-1.3,1-1.3l-4-106.8l0,0
	c0-0.2,0-0.5,0-0.7C167.5,11.8,155.4-0.2,140.5,0c-14.8,0.2-26.7,12.4-26.6,27.2C113.9,32.1,115.1,36.3,117,39.9z"/>
<path id="tarifs" class="st2" d="M54.4,93.8L54.4,93.8l91.9,57c0,0,1.2,0.6,1.9-0.2s0.2-1.6,0.2-1.6l-56-91l0,0
	c-0.1-0.2-0.2-0.4-0.3-0.6c-7.4-12.8-23.8-17.2-36.7-9.8C42.6,55,38.2,71.4,45.6,84.3C48.1,88.5,51.2,91.6,54.4,93.8z"/>
<path id="aidesFinancieres" class="st3" d="M25,167.1v0.1l107.9,7.1c0,0,1.4,0,1.6-1.1s-0.6-1.5-0.6-1.5l-92.2-54l0,0
	c-0.2-0.1-0.4-0.3-0.6-0.4c-12.5-7.8-29.1-4.1-37,8.6s-4,29.2,8.6,37.1C16.8,165.6,21.1,166.8,25,167.1z"/>
<path id="contact" class="st4" d="M39.4,246.8v0.1l95.9-49.8c0,0,1.2-0.8,0.8-1.8c-0.4-1.1-1.3-1-1.3-1L28,195.9l0,0
	c-0.2,0-0.5,0-0.7,0c-14.8-0.1-27,11.7-27.2,26.6c-0.1,14.8,11.7,27,26.6,27.2C31.6,249.8,35.8,248.7,39.4,246.8z"/>
</svg>
