<?xml version="1.0" encoding="utf-8"?>
<!-- Generator: Adobe Illustrator 23.0.3, SVG Export Plug-In . SVG Version: 6.00 Build 0)  -->
<svg version="1.1" xmlns="http://www.w3.org/2000/svg" xmlns:xlink="http://www.w3.org/1999/xlink" x="0px" y="0px"
	 viewBox="0 0 345.7 323.4" style="enable-background:new 0 0 345.7 323.4;" xml:space="preserve">
<style type="text/css">
	.st0{display:none;}
	.st1{fill:none;stroke:#B5AEAC;stroke-width:0.25;stroke-miterlimit:10;}
	.st2{fill:none;}
	.st3{fill:none;stroke:#000000;stroke-width:0.25;stroke-miterlimit:10;}
	.st4{display:inline;}
	.st5{fill:none;stroke:#000000;stroke-width:0.2308;stroke-miterlimit:10;}
	.st6{display:none;fill:none;stroke:#000000;stroke-width:0.2308;stroke-miterlimit:10;}
	.st7{fill:#3E59A5;}
</style>
<g id="Calque_1" class="st0">
	<line class="st1" x1="-320.3" y1="344" x2="358.1" y2="344"/>
	<line class="st2" x1="-173.9" y1="370.1" x2="325" y2="326.1"/>
	<line class="st3" x1="-195" y1="372.1" x2="304" y2="328.1"/>
	<line class="st3" x1="-60.9" y1="302.2" x2="438" y2="258.3"/>
	
		<ellipse transform="matrix(0.5738 -0.819 0.819 0.5738 -233.8942 109.8031)" class="st3" cx="-11.5" cy="279.6" rx="109.4" ry="78.5"/>
	<path class="st3" d="M163.5,279.8c-16.7,27.8-33.5,49.3-50.6,64.7c-17.1,15.4-31.2,23-42.4,23c-6.6,0-11.5-2.5-14.8-7.5
		c-3.3-5-4.9-10.6-4.9-16.9c0-7,1.9-14.7,5.8-23c3.9-8.3,9.1-17.9,15.7-28.6c0.8-1.1,3-4.9,6.7-11.4c3.7-6.5,5.5-11.2,5.5-14.2
		c0-3.7-2.6-6.8-7.8-9.2c-5.2-2.4-10.4-4-15.4-4.7c-24,33.7-46.5,62.3-67.5,85.8c-20.9,23.5-39.2,35.3-54.7,35.3
		c-10.5,0-15.7-7.2-15.7-21.7c0-18.1,6.3-39.8,18.9-65c12.6-25.2,28.3-46.8,47.1-65c18.8-18.1,36.7-27.2,53.8-27.2
		c9.7,0,16.9,2.9,21.5,8.6c4.7,5.7,7,13.2,7,22.5c0,6.3-1,12.8-2.9,19.4c8.9,0,15.9-1.8,20.9-5.6c5-3.7,7.6-9.8,7.6-18.3
		c0-12.2-5-22.2-15.1-30c-10.1-7.8-22.7-11.7-37.8-11.7c-24,0-48.7,9.4-73.8,28.3c-24.8,18.6-45.3,41.1-61.7,67.6
		c0.7,4.7,1.1,9.4,1.1,14.2c0,20-6.2,39.4-18.4,58.1c-2.4,3.6-5,7.2-7.7,10.6c1.2,10.9,5,19.6,11.4,26c7.9,8,18.3,11.9,31.1,11.9
		c13.6,0,27.2-5.2,41-15.5c13.8-10.4,29.4-26.7,46.8-48.9c-1.2,5.9-1.7,11.3-1.7,16.1c0,10.7,3.6,19.9,10.8,27.5
		c7.2,7.6,17.5,11.4,31.1,11.4c13.6,0,27.7-4.3,42.4-12.8c14.7-8.5,28.5-20.5,41.3-35.8c12.8-15.4,23.3-32.9,31.4-52.5L163.5,279.8z
		"/>
	<g>
		<g class="st4">
			<path class="st5" d="M-97.6,111.5l2,2.1C-96.3,112.9-96.9,112.2-97.6,111.5z"/>
			<path class="st5" d="M-35.2,76.2c0.3,1,0.6,2,0.9,3L-35.2,76.2z"/>
			<line class="st5" x1="-26.2" y1="71.1" x2="-35.2" y2="76.2"/>
			<line class="st5" x1="-97.6" y1="111.5" x2="-105.9" y2="116.2"/>
			<path class="st5" d="M-38.4,69.2c1.3,2.3,2.4,4.6,3.2,7l0.9,3l0,0L-4,183.9c1.3,4.6-0.7,9.5-4.8,11.8h0c-4.1,2.3-9.4,1.5-12.6-2
				l-74.2-80.2l-2-2.1c-1.5-1.8-2.8-3.7-4-5.7c-10.2-18.1-3.4-41.1,15.4-50.6C-69.2,46.6-48.1,52.8-38.4,69.2z"/>
			<line class="st5" x1="-96.5" y1="40.6" x2="5.9" y2="221.5"/>
		</g>
		<g class="st4">
			<path class="st5" d="M-12.3,67.9l0.9,2.7C-11.7,69.7-12,68.8-12.3,67.9z"/>
			<path class="st5" d="M59.1,61.1c-0.1,1-0.2,2.1-0.4,3.1L59.1,61.1z"/>
			<line class="st5" x1="69.4" y1="60.2" x2="59.1" y2="61.1"/>
			<line class="st5" x1="-12.3" y1="67.9" x2="-21.8" y2="68.8"/>
			<path class="st5" d="M59,53.4c0.3,2.6,0.3,5.2,0.1,7.7l-0.4,3.1l0,0.1l-15,108c-0.7,4.7-4.5,8.4-9.2,8.8h0
				c-4.7,0.4-9.2-2.4-10.7-6.9l-35-103.5l-0.9-2.7c-0.7-2.2-1.1-4.5-1.3-6.9c-2-20.7,13.7-38.9,34.7-39.9
				C40.1,20.2,56.8,34.5,59,53.4z"/>
			<line class="st5" x1="17.6" y1="3.6" x2="37.2" y2="210.6"/>
		</g>
		<g class="st4">
			<path class="st5" d="M103.4,69.7l-0.9,2.7C102.8,71.5,103.1,70.6,103.4,69.7z"/>
			<path class="st5" d="M164.7,106.8c-0.7,0.8-1.4,1.5-2.2,2.2L164.7,106.8z"/>
			<line class="st5" x1="173.6" y1="112.2" x2="164.7" y2="106.8"/>
			<line class="st5" x1="103.4" y1="69.7" x2="95.3" y2="64.7"/>
			<path class="st5" d="M169.3,100.6c-1.3,2.3-2.9,4.4-4.5,6.2l-2.2,2.2l0,0l-76.5,77.7c-3.3,3.4-8.6,4.1-12.7,1.6h0
				c-4.1-2.5-5.9-7.4-4.5-12l33.6-104l0.9-2.7c0.8-2.2,1.8-4.3,3-6.3c10.8-17.8,34.2-23.1,51.7-11.3
				C173.9,62.7,178.8,84.1,169.3,100.6z"/>
			<line class="st5" x1="165.8" y1="35.9" x2="58" y2="213.7"/>
		</g>
		<g class="st4">
			<path class="st5" d="M198.9,147.2l-2.5,1.4C197.2,148.1,198,147.7,198.9,147.2z"/>
			<path class="st5" d="M217.1,216.5c-1,0.1-2.1,0.1-3.1,0.1L217.1,216.5z"/>
			<line class="st5" x1="219.8" y1="226.6" x2="217.1" y2="216.5"/>
			<line class="st5" x1="198.9" y1="147.2" x2="196.5" y2="138"/>
			<path class="st5" d="M224.7,215.2c-2.5,0.7-5.1,1.2-7.6,1.3l-3.1,0.1l-0.1,0l-109,2.7c-4.8,0.1-9-3.1-10.2-7.7v0
				c-1.2-4.6,0.9-9.4,5.1-11.7l96.4-51.4l2.5-1.4c2.1-1,4.3-1.8,6.6-2.4c20.1-5.3,40.6,7.2,45,27.8C254.4,191.2,243,210,224.7,215.2
				z"/>
			<line class="st5" x1="267.2" y1="166.3" x2="66.1" y2="219.2"/>
		</g>
		<g class="st4">
			<path class="st5" d="M212.2,248.5l-2.9-0.2C210.3,248.3,211.3,248.4,212.2,248.5z"/>
			<path class="st5" d="M191.8,317.2c-0.9-0.5-1.8-1-2.7-1.5L191.8,317.2z"/>
			<line class="st5" x1="188.9" y1="327.1" x2="191.8" y2="317.2"/>
			<line class="st5" x1="212.2" y1="248.5" x2="215" y2="239.3"/>
			<path class="st5" d="M199,320c-2.5-0.7-4.9-1.7-7.2-2.8l-2.7-1.5l0,0l-94.5-54.3c-4.1-2.4-6.1-7.3-4.7-11.8l0,0
				c1.4-4.6,5.7-7.6,10.4-7.3l109.1,6.2l2.9,0.2c2.3,0.2,4.6,0.7,6.9,1.3c19.9,5.9,31,27.3,24,47.1C236.9,314.9,217.4,325.1,199,320
				z"/>
			<line class="st5" x1="260.7" y1="300.2" x2="61.4" y2="241"/>
		</g>
	</g>
</g>
<g id="Calque_2">
	<line class="st6" x1="-82.4" y1="22.5" x2="7.9" y2="209.8"/>
	<line class="st6" x1="49.9" y1="0.6" x2="38.4" y2="208.2"/>
	<line class="st6" x1="187.2" y1="54.5" x2="55.4" y2="215.3"/>
	<line class="st6" x1="266.3" y1="188.5" x2="62" y2="227.2"/>
	<line class="st6" x1="241.7" y1="327.6" x2="52.8" y2="240.8"/>
	<g>
		<path class="st7" d="M275.5,36.6c-1.2,2.4-2.1,4.8-2.7,7.2l-0.7,3l0,0l-23.4,106.5c-1,4.7,1.3,9.4,5.6,11.5h0
			c4.3,2.1,9.4,0.9,12.4-2.8l68.8-84.9l1.8-2.2c1.4-1.8,2.6-3.8,3.6-6c9-18.7,0.6-41.3-18.7-49.5C304.7,12,284.1,19.6,275.5,36.6z"
			/>
		<path class="st7" d="M165.8,37.8c0.1,2.6,0.5,5.2,1.1,7.6l0.9,3l0,0l31,104.5c1.4,4.6,5.7,7.6,10.4,7.3h0c4.8-0.3,8.7-3.8,9.5-8.5
			l19.2-107.6l0.5-2.8c0.3-2.3,0.4-4.6,0.3-7C237.6,13.7,219.3-2,198.4,0.2C179.5,2.2,165.1,18.8,165.8,37.8z"/>
		<path class="st7" d="M67.7,100.7c1.6,2.1,3.4,3.9,5.4,5.5l2.5,1.9l0,0l86.7,66.1c3.8,2.9,9.1,2.8,12.7-0.2l0,0
			c3.7-3,4.8-8.2,2.7-12.5l-48-98.2l-1.3-2.6c-1.1-2-2.4-4-3.9-5.8C111.5,39,87.5,37,71.9,51.1C57.8,63.9,55.9,85.8,67.7,100.7z"/>
		<path class="st7" d="M28.7,216.1c2.6,0.5,5.1,0.8,7.7,0.8l3.1-0.1l0.1,0l108.9-5c4.8-0.2,8.7-3.7,9.6-8.4v0
			c0.9-4.7-1.6-9.4-5.9-11.3l-99.8-44.5l-2.6-1.2c-2.1-0.9-4.4-1.5-6.7-2c-20.4-3.9-40,10.1-42.9,30.9
			C-2.6,194.2,10,212.2,28.7,216.1z"/>
		<path class="st7" d="M71.3,320.2c2.4-1.1,4.7-2.3,6.7-3.8l2.4-1.9l0,0l85.9-67.1c3.8-2.9,5-8.1,3-12.4l0,0
			c-2-4.3-6.7-6.7-11.4-5.8L50.9,250.7l-2.8,0.6c-2.2,0.5-4.5,1.3-6.6,2.3c-18.9,8.7-26.8,31.4-17.1,50
			C33.2,320.5,53.9,327.8,71.3,320.2z"/>
	</g>
</g>
</svg>
