<?xml version="1.0" encoding="utf-8"?>
<!-- Generator: Adobe Illustrator 23.0.3, SVG Export Plug-In . SVG Version: 6.00 Build 0)  -->
<svg version="1.1" xmlns="http://www.w3.org/2000/svg" xmlns:xlink="http://www.w3.org/1999/xlink" x="0px" y="0px"
	 viewBox="0 0 344.9 323.2" style="enable-background:new 0 0 344.9 323.2;" xml:space="preserve">
<style type="text/css">
	.st0{display:none;}
	.st1{fill:none;stroke:#B5AEAC;stroke-width:0.25;stroke-miterlimit:10;}
	.st2{fill:none;}
	.st3{fill:none;stroke:#000000;stroke-width:0.25;stroke-miterlimit:10;}
	.st4{display:inline;}
	.st5{fill:none;stroke:#000000;stroke-width:0.2308;stroke-miterlimit:10;}
	.st6{display:none;fill:none;stroke:#000000;stroke-width:0.2308;stroke-miterlimit:10;}
	.st7{fill:#3E59A5;}
	.st8{fill:#70B62C;}
	.st9{fill:#FFD600;}
	.st10{fill:#EB6808;}
	.st11{fill:#DF3114;}
</style>
<g id="Calque_1" class="st0">
	<line class="st1" x1="110.7" y1="343.1" x2="789.1" y2="343.1"/>
	<line class="st2" x1="257.1" y1="369.2" x2="756" y2="325.3"/>
	<line class="st3" x1="236" y1="371.2" x2="735" y2="327.3"/>
	<line class="st3" x1="370.1" y1="301.4" x2="869" y2="257.5"/>
	
		<ellipse transform="matrix(0.5738 -0.819 0.819 0.5738 -49.4831 462.4213)" class="st3" cx="419.5" cy="278.8" rx="109.4" ry="78.5"/>
	<path class="st3" d="M594.5,278.9c-16.7,27.8-33.5,49.3-50.6,64.7c-17.1,15.4-31.2,23-42.4,23c-6.6,0-11.5-2.5-14.8-7.5
		c-3.3-5-4.9-10.6-4.9-16.9c0-7,1.9-14.7,5.8-23c3.9-8.3,9.1-17.9,15.7-28.6c0.8-1.1,3-4.9,6.7-11.4c3.7-6.5,5.5-11.2,5.5-14.2
		c0-3.7-2.6-6.8-7.8-9.2c-5.2-2.4-10.4-4-15.4-4.7c-24,33.7-46.5,62.3-67.5,85.8c-20.9,23.5-39.2,35.3-54.7,35.3
		c-10.5,0-15.7-7.2-15.7-21.7c0-18.1,6.3-39.8,18.9-65c12.6-25.2,28.3-46.8,47.1-65c18.8-18.1,36.7-27.2,53.8-27.2
		c9.7,0,16.9,2.9,21.5,8.6c4.7,5.7,7,13.2,7,22.5c0,6.3-1,12.8-2.9,19.4c8.9,0,15.9-1.8,20.9-5.6c5-3.7,7.6-9.8,7.6-18.3
		c0-12.2-5-22.2-15.1-30c-10.1-7.8-22.7-11.7-37.8-11.7c-24,0-48.7,9.4-73.8,28.3c-24.8,18.6-45.3,41.1-61.7,67.6
		c0.7,4.7,1.1,9.4,1.1,14.2c0,20-6.2,39.4-18.4,58.1c-2.4,3.6-5,7.2-7.7,10.6c1.2,10.9,5,19.6,11.4,26c7.9,8,18.3,11.9,31.1,11.9
		c13.6,0,27.2-5.2,41-15.5c13.8-10.4,29.4-26.7,46.8-48.9c-1.2,5.9-1.7,11.3-1.7,16.1c0,10.7,3.6,19.9,10.8,27.5
		c7.2,7.6,17.5,11.4,31.1,11.4c13.6,0,27.7-4.3,42.4-12.8c14.7-8.5,28.5-20.5,41.3-35.8c12.8-15.4,23.3-32.9,31.4-52.5L594.5,278.9z
		"/>
	<g>
		<g class="st4">
			<path class="st5" d="M333.4,110.6l2,2.1C334.7,112,334.1,111.3,333.4,110.6z"/>
			<path class="st5" d="M395.8,75.3c0.3,1,0.6,2,0.9,3L395.8,75.3z"/>
			<line class="st5" x1="404.8" y1="70.2" x2="395.8" y2="75.3"/>
			<line class="st5" x1="333.4" y1="110.6" x2="325.1" y2="115.3"/>
			<path class="st5" d="M392.6,68.3c1.3,2.3,2.4,4.6,3.2,7l0.9,3l0,0L427,183c1.3,4.6-0.7,9.5-4.8,11.8l0,0c-4.1,2.3-9.4,1.5-12.6-2
				l-74.2-80.2l-2-2.1c-1.5-1.8-2.8-3.7-4-5.7c-10.2-18.1-3.4-41.1,15.4-50.6C361.8,45.7,382.9,51.9,392.6,68.3z"/>
			<line class="st5" x1="334.5" y1="39.7" x2="436.9" y2="220.7"/>
		</g>
		<g class="st4">
			<path class="st5" d="M418.7,67l0.9,2.7C419.3,68.9,419,68,418.7,67z"/>
			<path class="st5" d="M490,60.3c-0.1,1-0.2,2.1-0.4,3.1L490,60.3z"/>
			<line class="st5" x1="500.4" y1="59.3" x2="490" y2="60.3"/>
			<line class="st5" x1="418.7" y1="67" x2="409.2" y2="67.9"/>
			<path class="st5" d="M490,52.6c0.3,2.6,0.3,5.2,0.1,7.7l-0.4,3.1l0,0.1l-15,108c-0.7,4.7-4.5,8.4-9.2,8.8h0
				c-4.7,0.4-9.2-2.4-10.7-6.9l-35-103.5l-0.9-2.7c-0.7-2.2-1.1-4.5-1.3-6.9c-2-20.7,13.7-38.9,34.7-39.9
				C471.1,19.4,487.8,33.7,490,52.6z"/>
			<line class="st5" x1="448.6" y1="2.8" x2="468.2" y2="209.7"/>
		</g>
		<g class="st4">
			<path class="st5" d="M534.4,68.8l-0.9,2.7C533.8,70.6,534.1,69.7,534.4,68.8z"/>
			<path class="st5" d="M595.7,105.9c-0.7,0.8-1.4,1.5-2.2,2.2L595.7,105.9z"/>
			<line class="st5" x1="604.6" y1="111.3" x2="595.7" y2="105.9"/>
			<line class="st5" x1="534.4" y1="68.8" x2="526.3" y2="63.9"/>
			<path class="st5" d="M600.3,99.7c-1.3,2.3-2.9,4.4-4.5,6.2l-2.2,2.2l0,0l-76.5,77.7c-3.3,3.4-8.6,4.1-12.7,1.6l0,0
				c-4.1-2.5-5.9-7.4-4.5-12l33.6-104l0.9-2.7c0.8-2.2,1.8-4.3,3-6.3c10.8-17.8,34.2-23.1,51.7-11.3
				C604.9,61.8,609.8,83.2,600.3,99.7z"/>
			<line class="st5" x1="596.8" y1="35" x2="489" y2="212.9"/>
		</g>
		<g class="st4">
			<path class="st5" d="M629.9,146.4l-2.5,1.4C628.2,147.2,629,146.8,629.9,146.4z"/>
			<path class="st5" d="M648.1,215.7c-1,0.1-2.1,0.1-3.1,0.1L648.1,215.7z"/>
			<line class="st5" x1="650.8" y1="225.7" x2="648.1" y2="215.7"/>
			<line class="st5" x1="629.9" y1="146.4" x2="627.5" y2="137.2"/>
			<path class="st5" d="M655.7,214.3c-2.5,0.7-5.1,1.2-7.6,1.3l-3.1,0.1l-0.1,0l-109,2.7c-4.8,0.1-9-3.1-10.2-7.7v0
				c-1.2-4.6,0.9-9.4,5.1-11.7l96.4-51.4l2.5-1.4c2.1-1,4.3-1.8,6.6-2.4c20.1-5.3,40.6,7.2,45,27.8
				C685.4,190.3,674,209.2,655.7,214.3z"/>
			<line class="st5" x1="698.2" y1="165.5" x2="497.1" y2="218.4"/>
		</g>
		<g class="st4">
			<path class="st5" d="M643.2,247.6l-2.9-0.2C641.3,247.5,642.3,247.5,643.2,247.6z"/>
			<path class="st5" d="M622.8,316.3c-0.9-0.5-1.8-1-2.7-1.5L622.8,316.3z"/>
			<line class="st5" x1="619.9" y1="326.3" x2="622.8" y2="316.3"/>
			<line class="st5" x1="643.2" y1="247.6" x2="646" y2="238.5"/>
			<path class="st5" d="M630,319.1c-2.5-0.7-4.9-1.7-7.2-2.8l-2.7-1.5l0,0l-94.5-54.3c-4.1-2.4-6.1-7.3-4.7-11.8v0
				c1.4-4.6,5.7-7.6,10.4-7.3l109.1,6.2l2.9,0.2c2.3,0.2,4.6,0.7,6.9,1.3c19.9,5.9,31,27.3,24,47.1C667.9,314,648.4,324.2,630,319.1
				z"/>
			<line class="st5" x1="691.7" y1="299.4" x2="492.4" y2="240.2"/>
		</g>
	</g>
</g>
<g id="Calque_2">
	<line class="st6" x1="348.6" y1="21.6" x2="438.9" y2="208.9"/>
	<line class="st6" x1="480.9" y1="-0.3" x2="469.4" y2="207.3"/>
	<line class="st6" x1="618.2" y1="53.6" x2="486.4" y2="214.4"/>
	<line class="st6" x1="697.3" y1="187.7" x2="493" y2="226.3"/>
	<line class="st6" x1="672.7" y1="326.7" x2="483.8" y2="239.9"/>
	<g>
		<path class="st7" d="M275.9,36.6c-1.2,2.4-2.1,4.8-2.7,7.2l-0.7,3l0,0L249,153.4c-1,4.7,1.3,9.4,5.6,11.5h0
			c4.3,2.1,9.4,0.9,12.4-2.8l68.8-84.9l1.8-2.2c1.4-1.8,2.6-3.8,3.6-6c9-18.7,0.6-41.3-18.7-49.5C305.1,12,284.4,19.6,275.9,36.6z"
			/>
		<path class="st8" d="M166.2,37.8c0.1,2.6,0.5,5.2,1.1,7.6l0.9,3l0,0l31,104.5c1.4,4.6,5.7,7.6,10.4,7.3h0c4.8-0.3,8.7-3.8,9.5-8.5
			l19.2-107.6l0.5-2.8c0.3-2.3,0.4-4.6,0.3-7C237.9,13.7,219.7-2,198.8,0.2C179.9,2.2,165.5,18.8,166.2,37.8z"/>
		<path class="st9" d="M68.1,100.7c1.6,2.1,3.4,3.9,5.4,5.5l2.5,1.9l0,0l86.7,66.1c3.8,2.9,9.1,2.8,12.7-0.2l0,0
			c3.7-3,4.8-8.2,2.7-12.5l-48-98.2l-1.3-2.6c-1.1-2-2.4-4-3.9-5.8C111.8,39,87.8,37,72.2,51.1C58.1,63.9,56.3,85.8,68.1,100.7z"/>
		<path class="st10" d="M29,216.1c2.6,0.5,5.1,0.8,7.7,0.8l3.1-0.1l0.1,0l108.9-5c4.8-0.2,8.7-3.7,9.6-8.4v0
			c0.9-4.7-1.6-9.4-5.9-11.3l-99.8-44.5l-2.6-1.2c-2.1-0.9-4.4-1.5-6.7-2c-20.4-3.9-40,10.1-42.9,30.9
			C-2.3,194.2,10.4,212.2,29,216.1z"/>
		<path class="st11" d="M71.7,320.2c2.4-1.1,4.7-2.3,6.7-3.8l2.4-1.9l0,0l85.9-67.1c3.8-2.9,5-8.1,3-12.4v0c-2-4.3-6.7-6.7-11.4-5.8
			L51.3,250.7l-2.8,0.6c-2.2,0.5-4.5,1.3-6.6,2.3C23,262.2,15,285,24.7,303.6C33.5,320.5,54.2,327.8,71.7,320.2z"/>
	</g>
</g>
</svg>
