<?xml version="1.0" encoding="utf-8"?>
<!-- Generator: Adobe Illustrator 23.0.3, SVG Export Plug-In . SVG Version: 6.00 Build 0)  -->
<svg version="1.1" xmlns="http://www.w3.org/2000/svg" xmlns:xlink="http://www.w3.org/1999/xlink" x="0px" y="0px"
	 viewBox="0 0 345.9 324.7" style="enable-background:new 0 0 345.9 324.7;" xml:space="preserve">
<style type="text/css">
	.st0{display:none;}
	.st1{fill:none;stroke:#B5AEAC;stroke-width:0.25;stroke-miterlimit:10;}
	.st2{fill:none;}
	.st3{fill:none;stroke:#000000;stroke-width:0.25;stroke-miterlimit:10;}
	.st4{display:inline;}
	.st5{fill:none;stroke:#000000;stroke-width:0.2308;stroke-miterlimit:10;}
	.st6{display:none;fill:none;stroke:#000000;stroke-width:0.2308;stroke-miterlimit:10;}
	.st7{fill:#FFD600;}
</style>
<g id="Calque_1" class="st0">
	<line class="st1" x1="-1186.6" y1="344.6" x2="-508.1" y2="344.6"/>
	<line class="st2" x1="-1040.1" y1="370.7" x2="-541.2" y2="326.8"/>
	<line class="st3" x1="-1061.2" y1="372.7" x2="-562.2" y2="328.8"/>
	<line class="st3" x1="-927.1" y1="302.9" x2="-428.2" y2="258.9"/>
	
		<ellipse transform="matrix(0.5738 -0.819 0.819 0.5738 -603.6115 -599.3817)" class="st3" cx="-877.7" cy="280.2" rx="109.4" ry="78.5"/>
	<path class="st3" d="M-702.7,280.4c-16.7,27.8-33.5,49.3-50.6,64.7c-17.1,15.4-31.2,23-42.4,23c-6.6,0-11.5-2.5-14.8-7.5
		c-3.3-5-4.9-10.6-4.9-16.9c0-7,1.9-14.7,5.8-23c3.9-8.3,9.1-17.9,15.7-28.6c0.8-1.1,3-4.9,6.7-11.4c3.7-6.5,5.5-11.2,5.5-14.2
		c0-3.7-2.6-6.8-7.8-9.2c-5.2-2.4-10.4-4-15.4-4.7c-24,33.7-46.5,62.3-67.5,85.8c-20.9,23.5-39.2,35.3-54.7,35.3
		c-10.5,0-15.7-7.2-15.7-21.7c0-18.1,6.3-39.8,18.9-65c12.6-25.2,28.3-46.8,47.1-65c18.8-18.1,36.7-27.2,53.8-27.2
		c9.7,0,16.9,2.9,21.5,8.6c4.7,5.7,7,13.2,7,22.5c0,6.3-1,12.8-2.9,19.4c8.9,0,15.9-1.8,20.9-5.6c5-3.7,7.6-9.8,7.6-18.3
		c0-12.2-5-22.2-15.1-30c-10.1-7.8-22.7-11.7-37.8-11.7c-24,0-48.7,9.4-73.8,28.3c-24.8,18.6-45.3,41.1-61.7,67.6
		c0.7,4.7,1.1,9.4,1.1,14.2c0,20-6.2,39.4-18.4,58.1c-2.4,3.6-5,7.2-7.7,10.6c1.2,10.9,5,19.6,11.4,26c7.9,8,18.3,11.9,31.1,11.9
		c13.6,0,27.2-5.2,41-15.5c13.8-10.4,29.4-26.7,46.8-48.9c-1.2,5.9-1.7,11.3-1.7,16.1c0,10.7,3.6,19.9,10.8,27.5
		c7.2,7.6,17.5,11.4,31.1,11.4c13.6,0,27.7-4.3,42.4-12.8c14.7-8.5,28.5-20.5,41.3-35.8c12.8-15.4,23.3-32.9,31.4-52.5L-702.7,280.4
		z"/>
	<g>
		<g class="st4">
			<path class="st5" d="M-963.8,112.1l2,2.1C-962.5,113.5-963.2,112.8-963.8,112.1z"/>
			<path class="st5" d="M-901.4,76.8c0.3,1,0.6,2,0.9,3L-901.4,76.8z"/>
			<line class="st5" x1="-892.4" y1="71.7" x2="-901.4" y2="76.8"/>
			<line class="st5" x1="-963.8" y1="112.1" x2="-972.1" y2="116.8"/>
			<path class="st5" d="M-904.6,69.8c1.3,2.3,2.4,4.6,3.2,7l0.9,3l0,0l30.4,104.7c1.3,4.6-0.7,9.5-4.8,11.8l0,0
				c-4.1,2.3-9.4,1.5-12.6-2l-74.2-80.2l-2-2.1c-1.5-1.8-2.8-3.7-4-5.7c-10.2-18.1-3.4-41.1,15.4-50.6
				C-935.4,47.2-914.3,53.4-904.6,69.8z"/>
			<line class="st5" x1="-962.7" y1="41.2" x2="-860.3" y2="222.2"/>
		</g>
		<g class="st4">
			<path class="st5" d="M-878.5,68.5l0.9,2.7C-877.9,70.4-878.2,69.5-878.5,68.5z"/>
			<path class="st5" d="M-807.2,61.8c-0.1,1-0.2,2.1-0.4,3.1L-807.2,61.8z"/>
			<line class="st5" x1="-796.8" y1="60.8" x2="-807.2" y2="61.8"/>
			<line class="st5" x1="-878.5" y1="68.5" x2="-888" y2="69.4"/>
			<path class="st5" d="M-807.2,54.1c0.3,2.6,0.3,5.2,0.1,7.7l-0.4,3.1l0,0.1l-15,108c-0.7,4.7-4.5,8.4-9.2,8.8l0,0
				c-4.7,0.4-9.2-2.4-10.7-6.9l-35-103.5l-0.9-2.7c-0.7-2.2-1.1-4.5-1.3-6.9c-2-20.7,13.7-38.9,34.7-39.9
				C-826.1,20.9-809.4,35.1-807.2,54.1z"/>
			<line class="st5" x1="-848.6" y1="4.2" x2="-829" y2="211.2"/>
		</g>
		<g class="st4">
			<path class="st5" d="M-762.8,70.3l-0.9,2.7C-763.4,72.1-763.1,71.2-762.8,70.3z"/>
			<path class="st5" d="M-701.5,107.4c-0.7,0.8-1.4,1.5-2.2,2.2L-701.5,107.4z"/>
			<line class="st5" x1="-692.6" y1="112.8" x2="-701.5" y2="107.4"/>
			<line class="st5" x1="-762.8" y1="70.3" x2="-770.9" y2="65.4"/>
			<path class="st5" d="M-697,101.2c-1.3,2.3-2.9,4.4-4.5,6.2l-2.2,2.2l0,0l-76.5,77.7c-3.3,3.4-8.6,4.1-12.7,1.6l0,0
				c-4.1-2.5-5.9-7.4-4.5-12l33.6-104l0.9-2.7c0.8-2.2,1.8-4.3,3-6.3c10.8-17.8,34.2-23.1,51.7-11.3
				C-692.3,63.3-687.4,84.7-697,101.2z"/>
			<line class="st5" x1="-700.5" y1="36.5" x2="-808.2" y2="214.4"/>
		</g>
		<g class="st4">
			<path class="st5" d="M-667.3,147.9l-2.5,1.4C-669,148.7-668.2,148.3-667.3,147.9z"/>
			<path class="st5" d="M-649.1,217.2c-1,0.1-2.1,0.1-3.1,0.1L-649.1,217.2z"/>
			<line class="st5" x1="-646.4" y1="227.2" x2="-649.1" y2="217.2"/>
			<line class="st5" x1="-667.3" y1="147.9" x2="-669.7" y2="138.6"/>
			<path class="st5" d="M-641.5,215.8c-2.5,0.7-5.1,1.2-7.6,1.3l-3.1,0.1l-0.1,0l-109,2.7c-4.8,0.1-9-3.1-10.2-7.7v0
				c-1.2-4.6,0.9-9.4,5.1-11.7l96.4-51.4l2.5-1.4c2.1-1,4.3-1.8,6.6-2.4c20.1-5.3,40.6,7.2,45,27.8
				C-611.8,191.8-623.2,210.6-641.5,215.8z"/>
			<line class="st5" x1="-599" y1="166.9" x2="-800.1" y2="219.9"/>
		</g>
		<g class="st4">
			<path class="st5" d="M-654,249.1l-2.9-0.2C-655.9,248.9-654.9,249-654,249.1z"/>
			<path class="st5" d="M-674.4,317.8c-0.9-0.5-1.8-1-2.7-1.5L-674.4,317.8z"/>
			<line class="st5" x1="-677.3" y1="327.8" x2="-674.4" y2="317.8"/>
			<line class="st5" x1="-654" y1="249.1" x2="-651.3" y2="240"/>
			<path class="st5" d="M-667.2,320.6c-2.5-0.7-4.9-1.7-7.2-2.8l-2.7-1.5l0,0l-94.5-54.3c-4.1-2.4-6.1-7.3-4.7-11.8l0,0
				c1.4-4.6,5.7-7.6,10.4-7.3l109.1,6.2l2.9,0.2c2.3,0.2,4.6,0.7,6.9,1.3c19.9,5.9,31,27.3,24,47.1
				C-629.4,315.5-648.9,325.7-667.2,320.6z"/>
			<line class="st5" x1="-605.5" y1="300.9" x2="-804.9" y2="241.7"/>
		</g>
	</g>
</g>
<g id="Calque_2">
	<line class="st6" x1="-948.6" y1="23.1" x2="-858.4" y2="210.4"/>
	<line class="st6" x1="-816.3" y1="1.2" x2="-827.9" y2="208.8"/>
	<line class="st6" x1="-679" y1="55.1" x2="-810.9" y2="215.9"/>
	<line class="st6" x1="-599.9" y1="189.2" x2="-804.2" y2="227.8"/>
	<line class="st6" x1="-624.5" y1="328.2" x2="-813.4" y2="241.4"/>
	<g>
		<path class="st7" d="M276.9,37.6c-1.2,2.4-2.1,4.8-2.7,7.2l-0.7,3l0,0L250,154.4c-1,4.7,1.3,9.4,5.6,11.5h0
			c4.3,2.1,9.4,0.9,12.4-2.8l68.8-84.9l1.8-2.2c1.4-1.8,2.6-3.8,3.6-6c9-18.7,0.6-41.3-18.7-49.5C306.1,13,285.4,20.6,276.9,37.6z"
			/>
		<path class="st7" d="M167.2,38.8c0.1,2.6,0.5,5.2,1.1,7.6l0.9,3l0,0l31,104.5c1.4,4.6,5.7,7.6,10.4,7.3h0c4.8-0.3,8.7-3.8,9.5-8.5
			l19.2-107.6l0.5-2.8c0.3-2.3,0.4-4.6,0.3-7C238.9,14.7,220.7-1,199.8,1.2C180.9,3.2,166.5,19.8,167.2,38.8z"/>
		<path class="st7" d="M69.1,101.7c1.6,2.1,3.4,3.9,5.4,5.5l2.5,1.9l0,0l86.7,66.1c3.8,2.9,9.1,2.8,12.7-0.2l0,0
			c3.7-3,4.8-8.2,2.7-12.5l-48-98.2l-1.3-2.6c-1.1-2-2.4-4-3.9-5.8C112.8,40,88.8,38,73.2,52.1C59.1,64.9,57.3,86.8,69.1,101.7z"/>
		<path class="st7" d="M30,217.1c2.6,0.5,5.1,0.8,7.7,0.8l3.1-0.1l0.1,0l108.9-5c4.8-0.2,8.7-3.7,9.6-8.4v0
			c0.9-4.7-1.6-9.4-5.9-11.3l-99.8-44.5l-2.6-1.2c-2.1-0.9-4.4-1.5-6.7-2c-20.4-3.9-40,10.1-42.9,30.9
			C-1.3,195.2,11.4,213.2,30,217.1z"/>
		<path class="st7" d="M72.7,321.2c2.4-1.1,4.7-2.3,6.7-3.8l2.4-1.9l0,0l85.9-67.1c3.8-2.9,5-8.1,3-12.4v0c-2-4.3-6.7-6.7-11.4-5.8
			L52.3,251.7l-2.8,0.6c-2.2,0.5-4.5,1.3-6.6,2.3C24,263.2,16,286,25.7,304.6C34.5,321.5,55.2,328.8,72.7,321.2z"/>
	</g>
</g>
</svg>
