<?xml version="1.0" encoding="utf-8"?>
<!-- Generator: Adobe Illustrator 23.0.3, SVG Export Plug-In . SVG Version: 6.00 Build 0)  -->
<svg version="1.1" id="Calque_1" xmlns="http://www.w3.org/2000/svg" xmlns:xlink="http://www.w3.org/1999/xlink" x="0px" y="0px"
	 viewBox="0 0 303 285" style="enable-background:new 0 0 303 285;" xml:space="preserve">
<style type="text/css">
	.st0{fill:#3E59A5;}
	.st1{fill:#70B62C;}
	.st2{fill:#FFD600;}
	.st3{fill:#EB6808;}
	.st4{fill:#DF3114;}
</style>
<g>
	<path class="st0" d="M242.3,33c-1,2.1-1.8,4.2-2.4,6.3l-0.6,2.7l0,0l-20.6,93.6c-0.9,4.1,1.1,8.3,4.9,10.1h0
		c3.8,1.8,8.3,0.8,10.9-2.5L295,68.6l1.6-2c1.2-1.6,2.3-3.4,3.2-5.3c7.9-16.4,0.6-36.3-16.5-43.5C268,11.4,249.8,18.1,242.3,33z"/>
	<path class="st1" d="M145.8,34.1c0.1,2.3,0.4,4.6,1,6.7l0.8,2.6l0,0l27.3,91.9c1.2,4,5,6.7,9.2,6.5h0c4.2-0.2,7.7-3.3,8.4-7.4
		l16.9-94.6l0.4-2.5c0.3-2,0.4-4.1,0.2-6.2c-1-18.2-17.1-32-35.4-30.1C157.8,2.7,145.2,17.3,145.8,34.1z"/>
	<path class="st2" d="M59.5,89.4c1.4,1.8,3,3.4,4.7,4.9l2.2,1.7l0,0l76.2,58.1c3.3,2.5,8,2.5,11.2-0.2h0c3.2-2.7,4.2-7.2,2.4-11
		l-42.2-86.3l-1.1-2.3c-1-1.8-2.1-3.5-3.4-5.1C98,35.1,76.9,33.4,63.2,45.8C50.8,57,49.2,76.2,59.5,89.4z"/>
	<path class="st3" d="M25.2,190.8c2.3,0.5,4.5,0.7,6.7,0.7l2.7-0.1l0,0l95.8-4.4c4.2-0.2,7.7-3.2,8.5-7.3l0,0
		c0.8-4.1-1.4-8.2-5.2-9.9L46,130.6l-2.3-1c-1.9-0.7-3.9-1.3-5.9-1.7C19.8,124.5,2.5,136.7,0,155C-2.3,171.6,8.8,187.4,25.2,190.8z"
		/>
	<path class="st4" d="M62.7,282.4c2.1-0.9,4.1-2.1,5.9-3.4l2.1-1.7l0,0l75.5-59c3.3-2.6,4.4-7.1,2.6-10.9l0,0
		c-1.8-3.8-5.9-5.9-10-5.1l-94.2,19l-2.5,0.5c-2,0.5-3.9,1.2-5.8,2c-16.6,7.6-23.6,27.6-15,44C29.1,282.6,47.4,289,62.7,282.4z"/>
</g>
</svg>
