<?xml version="1.0" encoding="utf-8"?>
<!-- Generator: Adobe Illustrator 23.0.3, SVG Export Plug-In . SVG Version: 6.00 Build 0)  -->
<svg version="1.1" id="Calque_1" xmlns="http://www.w3.org/2000/svg" xmlns:xlink="http://www.w3.org/1999/xlink" x="0px" y="0px"
	 viewBox="0 0 1292.3 405.1" style="enable-background:new 0 0 1292.3 405.1;" xml:space="preserve">
<style type="text/css">
	.st0{fill:#FFFFFF;}
	.st1{display:none;fill:none;stroke:#000000;stroke-width:0.2436;stroke-miterlimit:10;}
	.st2{fill:#B57EB4;}
	.st3{fill:#954694;}
	.st4{fill:#DF3114;}
	.st5{fill:#EB6808;}
	.st6{fill:#FFD600;}
	.st7{fill:#70B62C;}
	.st8{fill:#3E59A5;}
</style>
<rect class="st0" width="1292.3" height="405.1"/>
<g>
	<line class="st1" x1="170.8" y1="37.8" x2="249" y2="200.3"/>
	<line class="st1" x1="285.6" y1="18.8" x2="275.6" y2="198.8"/>
	<line class="st1" x1="404.4" y1="65.6" x2="290.2" y2="205"/>
	<line class="st1" x1="473.1" y1="181.9" x2="296" y2="215.2"/>
	<path class="st2" d="M302.8,267.4c-8.7,15.1-17.5,27-26.4,35.4c-8.8,8.4-16.2,12.5-22.2,12.5c-3.5,0-6-1.4-7.7-4.2
		c-1.6-2.7-2.6-5.8-2.6-9.3c0-3.9,1.1-8,3.1-12.5c1.9-4.5,4.8-9.7,8.2-15.6c0.5-0.6,1.6-2.6,3.5-6.3c1.9-3.5,2.9-6.1,2.9-7.7
		c0-1.9-1.4-3.7-4.2-5c-2.7-1.3-5.3-2.3-8-2.6c-12.5,18.3-24.3,34.1-35.2,46.8c-10.9,12.9-20.4,19.3-28.5,19.3
		c-5.5,0-8.2-3.9-8.2-11.7c0-10,3.2-21.7,9.8-35.6c6.6-13.7,14.8-25.6,24.6-35.6c9.8-10,19.1-14.8,28-14.8c5,0,8.7,1.6,11.3,4.8
		c2.4,3.2,3.7,7.2,3.7,12.2c0,3.5-0.5,6.9-1.4,10.6c4.7,0,8.4-1.1,10.9-3.1c2.6-1.9,3.9-5.3,3.9-10c0-6.6-2.6-12.1-7.9-16.4
		c-5.3-4.2-11.7-6.3-19.8-6.3c-12.5,0-25.4,5.1-38.4,15.4c-13,10.1-23.6,22.5-32.2,37c0.5,2.6,0.6,5.1,0.6,7.7
		c0,10.9-3.2,21.6-9.7,31.7c-1.3,1.9-2.6,3.9-4,5.8c0.6,6,2.6,10.6,6,14.3c4.2,4.3,9.7,6.6,16.2,6.6c7.1,0,14.3-2.9,21.4-8.5
		c7.2-5.6,15.3-14.6,24.5-26.7c-0.6,3.2-1,6.3-1,8.7c0,6,1.9,10.9,5.6,15c3.7,4.2,9.2,6.3,16.2,6.3c7.1,0,14.5-2.3,22.2-6.9
		c7.7-4.7,14.8-11.3,21.6-19.6c6.6-8.4,12.1-17.9,16.4-28.6L302.8,267.4z"/>
	<g>
		<path class="st3" d="M64.5,333.5c-7.1-3.9-12.1-8.7-15.4-14.6c-3.2-6-5-12.1-5-18.3c0-7.6,1.9-14.2,6.1-20.1s9.7-8.8,17.1-8.8
			c2.4,0,5.5,0.3,9,1.1c-3.2,2.6-5.6,6.3-7.9,11.1c-2.3,4.8-3.2,9.5-3.2,14.2c0,4.8,1.1,9.5,3.7,14c2.4,4.5,5.8,8.2,10,11.1
			c4.2,2.9,9,4.3,14.5,4.3c6.8,0,13.4-2.3,19.6-6.9c6.3-4.7,11.4-10.9,15.4-19.1c4-8,6-17.4,6-27.3c0-11.1-2.7-21.1-8.2-29.9
			s-14.5-14.8-26.9-18.2c9.2-4,17.4-9.5,24.5-16.7c7.1-7.1,12.7-14.8,16.6-23c3.9-8.2,5.8-16.1,5.8-23.3c0-7.9-2.3-13.7-6.8-17.4
			s-10-5.6-16.7-5.6c-7.6,0-14.3,2.3-20.1,6.8c-5.8,4.5-8.7,10.5-8.7,17.9c0,5.6,1.6,11.4,5.1,17.9c-1.1,2.3-2.9,4.3-5.3,6.3
			c-2.6,1.9-5,2.9-7.4,2.9c-3.7,0-6.6-2.4-8.8-7.2c-2.3-4.8-3.4-10-3.4-15.8c0-8,2.4-15,7.4-20.9s11.4-10.6,19.1-13.8
			c7.9-3.2,16.2-4.8,25.1-4.8c7.6,0,14.8,1.4,21.6,4.3c6.8,2.9,12.2,7.1,16.4,12.7s6.3,12.1,6.3,19.8c0,7.1-1.8,14.5-5.3,22.2
			c-3.5,7.6-8.5,14.6-14.8,20.8c-6.3,6.3-13.5,10.9-21.4,13.8c12.7,4.3,21.9,11.3,28,20.6c6,9.3,9,19.1,9,29.4
			c0,10.9-3.2,21.6-9.7,31.7c-6.4,10.3-15.3,18.5-26.5,25.1c-11.3,6.6-24,9.7-38,9.7C80.6,339.1,71.6,337.4,64.5,333.5z"/>
	</g>
	<path class="st4" d="M219.4,66c1.1,1.9,1.8,4.2,2.4,6.3l0.5,2.6l0,0l20.3,92.3c0.8,4-1.1,8-4.8,10l0,0c-3.7,1.8-8.2,0.8-10.8-2.4
		L167.3,101l-1.6-1.9c-1.1-1.6-2.3-3.4-3.2-5.1c-7.9-16.2-0.5-35.7,16.2-42.8C194.2,44.6,212,51.2,219.4,66z"/>
	<path class="st5" d="M314.7,66.9c-0.2,2.3-0.5,4.5-1,6.6l-0.8,2.6l0,0L286,166.7c-1.1,4-5,6.6-9,6.3l0,0c-4.2-0.2-7.6-3.2-8.2-7.4
		l-16.7-93.3l-0.5-2.4c-0.3-1.9-0.3-4-0.2-6.1c1.1-17.9,16.7-31.5,34.9-29.6C302.6,36,315.2,50.5,314.7,66.9z"/>
	<path class="st6" d="M399.6,121.5c-1.4,1.8-2.9,3.4-4.7,4.8l-2.1,1.6l0,0l-75.1,57.3c-3.2,2.6-7.9,2.4-11.1-0.2l0,0
		c-3.2-2.6-4.2-7.1-2.3-10.8L345.9,89l1.1-2.3c1-1.8,2.1-3.5,3.4-5c11.4-14,32.2-15.6,45.7-3.4C408.3,89.6,409.9,108.6,399.6,121.5z
		"/>
	<path class="st7" d="M433.6,221.5c-2.3,0.5-4.5,0.8-6.6,0.6l-2.6-0.2l0,0l-94.4-4.3c-4.2-0.2-7.6-3.2-8.4-7.2l0,0
		c-0.8-4,1.4-8,5.1-9.8l86.6-38.6l2.3-1.1c1.9-0.8,3.9-1.3,5.8-1.6c17.7-3.4,34.7,8.7,37.3,26.9
		C460.6,202.5,449.6,218.1,433.6,221.5z"/>
	<path class="st8" d="M396.4,311.8c-2.1-1-4-1.9-5.8-3.2l-2.1-1.6l0,0L314,248.7c-3.2-2.6-4.3-6.9-2.6-10.8l0,0
		c1.6-3.9,5.8-5.8,9.8-5l92.8,18.7l2.4,0.5c1.9,0.5,3.9,1.1,5.6,1.9c16.4,7.6,23.2,27.2,14.8,43.4
		C429.5,312.1,411.5,318.4,396.4,311.8z"/>
	<line class="st1" x1="451.9" y1="302.4" x2="288" y2="227.2"/>
</g>
<g>
	<path class="st3" d="M558.2,335.1c-3.5-2.7-6.3-6-8-10c-1.8-4.2-2.7-8.7-2.7-13.4c0-9.5,2.4-19.1,7.1-28.8c4.7-9.8,10.6-17.5,18-24
		c7.2-6.4,14.6-9.3,21.9-9.3c3.5,0,6.3,1,8.4,2.4c2.3,1.6,3.1,4.2,3.1,7.6c0,2.9-0.6,6.4-1.9,10.1c-1.3,3.7-3.1,7.1-5.1,9.8
		c-1.9,2.7-4.2,4-6.4,4c-1.8,0-3.4-1.1-4.7-3.4c2.9-3.1,5.5-6.9,8.2-11.1c2.7-4.2,4-7.7,4-10.5c0-2.9-1.8-4.5-4.8-4.5
		c-5.1,0-10.6,3.1-16.4,9.3c-5.8,6.3-10.6,14-14.5,23.3c-4,9.2-5.8,17.7-5.8,25.4c0,6,1.3,10.9,4,15.1c2.7,4,6.6,6.3,12.2,6.3
		c3.7,0,7.7-1.1,11.7-3.4c4-2.3,7.7-5.1,11.1-8.7c3.4-3.5,6-7.6,8-11.7l2.9,1.8c-4.2,8-9.5,14.5-15.8,19.5c-6.3,5.1-13,7.6-20.6,7.6
		C566.3,339,561.8,337.5,558.2,335.1z"/>
	<path class="st3" d="M603.1,329.8c-1.3-1.9-1.9-4.5-1.9-7.2c0-3.1,0.6-6.4,1.9-9.8c1.3-3.4,2.9-6.3,5.1-8.4
		c1.9-2.3,4.2-3.4,6.4-3.4c1,0,1.9,0.2,3.4,1c0.5-3.4,1.6-6.3,3.5-8.4c1.9-2.3,4.7-3.4,8.2-3.4c2.9,0,5.1,1,6.6,2.4
		c1.3,1.8,2.3,3.7,2.3,6.4c0,2.7-0.6,5.5-1.9,8.8c-1.3,3.4-3.1,6.6-5.3,10c1,0.5,1.9,0.6,3.1,0.6c1.9,0,4.2-0.6,6.6-1.9
		c2.4-1.3,4.2-3.5,5.5-6.3l1.9,1.6c-1.6,3.5-3.5,6.3-6.3,8c-2.7,1.8-5.3,2.7-8.2,2.7c-1.8,0-3.5-0.2-5.5-1.1c-2.7,3.4-5.8,6-9.2,8
		c-3.4,1.9-6.4,3.1-9.5,3.1C606.7,333,604.6,331.9,603.1,329.8z M618.6,325c1.9-1.6,3.7-3.4,5.8-5.5c-4.2-3.7-6.4-9.2-6.6-16.2
		c-1,0.5-1.9,1.8-3.4,4c-1.3,2.3-2.3,4.8-3.4,7.7c-1.1,2.9-1.3,5.3-1.3,7.2c0,3.4,1.3,5.1,3.7,5.1C615,327.2,616.6,326.6,618.6,325z
		 M631.9,307.3c1.1-2.9,1.8-5.5,1.8-8c0-3.4-1.1-4.8-3.1-4.8c-1,0-1.9,0.5-3.1,1.6c-1.1,1.1-1.8,2.3-2.4,3.7
		c-0.6,1.6-1.1,3.4-1.1,5.3c0,1.8,0.2,3.5,1,5.8c0.8,2.3,1.3,3.7,2.3,5.1C629,313.1,630.6,310.3,631.9,307.3z"/>
	<path class="st3" d="M646.1,329.3c-1.6-2.3-2.3-4.8-2.3-8.4c0-6.9,2.3-15.9,6.9-27.3c4.7-11.3,9.8-21.6,15.4-30.6
		c5.8-9.2,10-13.5,12.9-13.5c1.3,0,2.3,1,3.4,2.9c1,1.9,1.3,4,1.3,6c0,3.4-1.3,8.4-4,14.8c-2.7,6.6-6.4,13-11.1,19.9
		c-4.7,6.6-9.5,12.2-14.8,16.2c-1,4.7-1.1,8-1.1,10.5c0,2.7,0.5,4.5,1.3,5.8c0.8,1.3,1.9,1.9,3.5,1.9c2.7,0,5.3-1.8,8.2-5.1
		c2.9-3.4,5.5-7.6,7.7-12.4l2.7,1.6c-3.4,6.6-6.9,11.9-10.9,15.8c-4,3.7-8,5.5-12.2,5.5C649.9,332.7,647.7,331.6,646.1,329.3z
		 M667.1,287.5c3.5-5.8,6.3-11.3,8.4-16.4c2.3-5.1,3.1-9.2,3.1-11.6c-1,0-2.9,2.3-5.8,6.6c-2.9,4.5-6,10.1-9.2,16.9
		c-3.4,6.6-5.8,13-7.7,19.5C659.9,298.4,663.6,293.3,667.1,287.5z"/>
	<path class="st3" d="M672.3,329.8c-1.8-1.9-2.4-4.5-2.4-7.6c0-3.1,0.6-6.3,1.9-9.5c1.3-3.4,2.9-6.3,5.1-8.4
		c2.3-2.3,4.2-3.4,6.4-3.4c0.6,0,1.8,0.2,3.4,1c0.5-3.4,1.8-6.3,3.7-8.4c1.9-2.3,4.7-3.4,7.7-3.4c5.8,0,8.8,3.1,8.8,9.2
		c0,2.9-0.6,5.8-1.8,9.2c-1.1,3.4-2.9,6.4-5.1,9.5c1.3,0.5,2.4,0.6,3.4,0.6c3.5,0,6.6-1.1,8.8-3.5c2.4-2.4,4.5-5.1,6-8.4
		c1.6-3.4,2.9-7.1,4.5-11.6c-0.6-1-1.1-1.8-1.1-2.7c0-1.6,0.2-2.9,1-4c0.6-1.1,1.3-2.3,2.3-3.1c1-0.6,1.6-1.1,2.3-1.1
		c1.6,0,2.4,1.1,2.4,3.4c0,0.2-0.2,1-0.6,1.9c-0.5,1.1-0.6,1.8-0.6,1.9c0,0.5,0.2,1,1,1.3c0.6,0.5,1.6,1.1,2.7,1.9
		c2.7,1.6,4.7,3.4,6.3,4.8c1.6,1.8,2.3,3.7,2.3,6.4c0,1.6-0.2,3.4-1,4.8c-0.8,1.4-1.3,3.5-2.3,6c-1.6,3.4-2.3,5.5-2.3,7.1
		c0,1.1,0.2,1.8,0.6,1.9c0.5,0.5,1.1,0.5,1.9,0.5c2.3,0,4.5-1,7.1-2.7c2.4-1.8,4.8-4,7.1-6.4c2.3-2.4,3.7-4.8,4.7-7.1l2.3,1.6
		c-2.4,5.3-6,10.1-10.1,14.2c-4.2,4-8.8,6.3-13.5,6.3c-2.7,0-4.8-0.6-6.6-2.3c-1.8-1.6-2.7-3.4-2.7-5.8c0-1.6,0.2-3.1,0.6-4.7
		s1.3-3.7,2.3-6c1-2.3,1.6-4,1.9-5.3c0.3-1.3,0.6-2.4,0.6-3.5c0-3.1-1.9-5.5-5.8-7.7c-1.8,5.3-3.5,9.5-5.1,12.9
		c-1.6,3.4-3.7,6.3-6.6,8.8c-2.9,2.4-6.4,3.7-10.9,3.7c-1.8,0-3.5-0.2-5.3-1.1c-2.7,3.4-5.5,6-8.7,8c-3.2,2.1-6,3.1-8.8,3.1
		C676.3,333,673.7,331.9,672.3,329.8z M686.9,325c1.9-1.6,4-3.5,6.3-5.8c-4.5-3.5-6.6-9.2-6.6-16.4c-1.6,1.8-3.4,4.8-5.3,8.8
		c-1.8,4-2.7,7.2-2.7,9.8c0,1.9,0.2,3.4,1,4.5c0.8,1.1,1.6,1.6,2.7,1.6C683.4,327.5,684.8,326.6,686.9,325z M700.1,307.4
		c1-2.7,1.3-5.1,1.3-7.6c0-1.6-0.2-2.9-1-3.7c-0.6-1-1.3-1.3-1.9-1.3c-1.6,0-3.1,1-4.5,2.9c-1.3,1.9-1.9,4.2-1.9,6.9
		c0,1.8,0.5,3.5,1.1,5.5c1,1.9,1.8,3.5,2.9,5.1C698,312.6,699.3,310.2,700.1,307.4z"/>
	<path class="st3" d="M755.6,330.4c-2.7-2.4-4-5.8-4-9.5c0-4.2,1.3-8.8,4.2-14c2.9-4.8,6.6-9.2,11.1-12.7c4.5-3.4,8.8-5.1,13.4-5.1
		c2.3,0,4.2,0.6,5.8,1.8c1.6,1.1,2.3,3.1,2.3,5.8c0,3.5-1.3,6.9-4,10c-2.7,3.1-6.3,5.8-10.6,7.7c-4.5,1.9-8.7,3.4-13.4,3.7
		c-0.2,0.6-0.2,1.6-0.2,2.7c0,1.9,0.5,3.7,1.6,5.8c1.1,1.9,3.4,2.9,6.9,2.9c4.5,0,9.2-1.8,13.7-5.5c4.7-3.7,8.4-8.2,11.3-13.7
		l2.3,1.8c-2.9,6.6-7.1,11.9-12.7,15.9c-5.5,4-11.3,6.3-17.1,6.3C761.9,334.3,758,333,755.6,330.4z M770.7,311
		c3.4-1.8,6-4.2,8.4-6.9s3.4-5.3,3.4-8c0-1-0.2-1.3-0.5-1.8c-0.2-0.2-0.6-0.5-1.3-0.5c-2.3,0-4.5,1.1-7.1,3.1
		c-2.7,1.9-4.8,4.7-7.1,7.7c-2.3,3.1-3.7,6.3-4.7,9.3C764.5,313.9,767.4,312.7,770.7,311z"/>
	<path class="st3" d="M822.7,330.1c-1.1-2.3-1.8-5.5-1.8-9.8c0-1.9,0.2-6.4,0.5-13.4c0-2.4,0.5-4,1-4.7s1.6-1.1,3.4-1.1
		c1.8,0,2.7,0.2,3.1,1c0.5,0.6,0.5,1.9,0.5,4.5c0,1.3,0,3.7-0.2,7.1c-0.2,2.4-0.2,4.8-0.2,7.2s0.2,4.2,0.5,5.3c0.2,1,1,1.3,1.6,1.3
		c2.4,0,5.3-2.4,8.7-7.1c3.4-4.7,6.3-10,8.8-15.4c0.2-4.7,0.6-8,1.8-9.8c1-1.8,2.3-2.7,4-2.7c1.6,0,2.9,0.5,3.5,1.6
		c0.6,1.1,1.1,2.3,1.1,3.4c0,0.6-0.2,1.6-0.5,2.3c-0.2,0.6-0.5,1.1-0.6,1.3c-0.6,1.3-1.3,2.7-1.8,4.2c-0.5,1.6-0.6,3.5-0.6,6.3
		c0,5.1,1.6,7.7,4.8,7.7c1.6,0,2.9-0.6,4.5-1.8c1.3-1.3,2.9-3.4,4.2-6.4l1.3,1.1c-1.6,3.7-3.5,6.6-5.5,8.4c-1.9,1.8-4.2,2.7-6.3,2.7
		c-2.3,0-4.2-1-5.8-2.7s-2.9-4.5-3.5-7.6c-3.4,6-6.6,11.1-10.1,15.3c-3.5,4-6.9,6.3-10.1,6.3C825.6,333.7,823.8,332.5,822.7,330.1z"
		/>
	<path class="st3" d="M866.3,329.8c-1.3-1.9-1.9-4.5-1.9-7.2c0-3.1,0.6-6.4,1.9-9.8c1.3-3.4,2.9-6.3,5.1-8.4
		c1.9-2.3,4.2-3.4,6.4-3.4c1,0,1.9,0.2,3.4,1c0.5-3.4,1.6-6.3,3.5-8.4c1.9-2.3,4.7-3.4,8.2-3.4c2.9,0,5.1,1,6.6,2.4
		c1.3,1.8,2.3,3.7,2.3,6.4c0,2.7-0.6,5.5-1.9,8.8s-3.1,6.6-5.3,10c1,0.5,1.9,0.6,3.1,0.6c1.9,0,4.2-0.6,6.6-1.9
		c2.4-1.3,4.2-3.5,5.5-6.3l1.9,1.6c-1.6,3.5-3.5,6.3-6.3,8s-5.3,2.7-8.2,2.7c-1.8,0-3.5-0.2-5.5-1.1c-2.7,3.4-5.8,6-9.2,8
		c-3.4,1.9-6.4,3.1-9.5,3.1C869.8,333,867.6,331.9,866.3,329.8z M881.7,325c1.9-1.6,3.7-3.4,5.8-5.5c-4.2-3.7-6.4-9.2-6.6-16.2
		c-1,0.5-1.9,1.8-3.4,4c-1.3,2.3-2.3,4.8-3.4,7.7c-1.1,2.9-1.3,5.3-1.3,7.2c0,3.4,1.3,5.1,3.7,5.1
		C878.2,327.2,879.8,326.6,881.7,325z M895.1,307.3c1.1-2.9,1.8-5.5,1.8-8c0-3.4-1.1-4.8-3.1-4.8c-1,0-1.9,0.5-3.1,1.6
		c-1.1,1.1-1.8,2.3-2.4,3.7c-0.6,1.6-1.1,3.4-1.1,5.3c0,1.8,0.2,3.5,1,5.8c0.6,2.3,1.3,3.7,2.3,5.1
		C892.2,313.1,893.8,310.3,895.1,307.3z"/>
	<path class="st3" d="M909.1,331.4c-1.9-1.9-2.9-4.8-2.9-8.7c0-2.9,0.5-6.6,1.8-11.1c1.3-4.5,2.7-9.3,4.5-14.2
		c-1.9-0.5-3.4-0.6-4-1.1V293c1.8,0.2,3.5,0.5,5.3,0.5c3.4-8.4,6.9-15.4,10.6-21.6c3.7-6,6.9-8.8,9.3-8.8c1,0,1.6,0.2,2.3,1
		c0.6,0.6,1,1.3,1,2.3c0,1.1-0.5,2.7-1.6,4.8c-1.1,2.3-2.7,5.1-5.1,9.2c-3.4,5.5-5.8,10-7.7,13.7c8.4,0,15.3-0.2,20.4-0.6v3.5
		c-8.7,1-16.2,1.3-22.4,1.3c-3.7,9.2-5.8,16.6-5.8,22.2c0,3.1,0.5,5.1,1.6,6.4c1,1.3,2.4,1.8,4.5,1.8c3.7,0,7.6-1.8,11.3-5.1
		c4-3.4,7.2-8,10.1-13.7l1.6,1.1c-3.1,6.9-6.9,12.4-11.7,16.9c-4.8,4.5-9.8,6.4-15.1,6.4C913.4,334.5,910.9,333.3,909.1,331.4z"/>
	<path class="st3" d="M952.7,330.1c-1.8-1.6-2.7-3.4-2.7-5.8c0-1.3,0.2-2.9,1-4.7c0.6-1.8,1.3-3.7,2.4-6c1-1.9,1.8-3.7,2.3-5.3
		c0.5-1.6,1-2.7,1-3.7c0-2.9-1.8-5.1-5.5-7.1c-1.6,3.7-3.1,7.6-5.1,11.3c-2.1,3.7-3.7,6.9-5.3,9.5l-1.8-3.4c3.4-6,6.4-12.9,8.8-19.9
		c-0.6-0.6-1.1-1.8-1.1-3.1c0-1.9,0.6-3.7,1.8-5.3c1.1-1.6,2.4-2.7,3.5-2.7c0.6,0,1.3,0.5,1.8,1.3c0.5,1,0.6,1.6,0.6,2.3
		c0,0.2-0.2,1-0.5,1.9c-0.5,1.1-0.6,1.8-0.6,2.3s0.5,1.1,1,1.6c0.5,0.5,1.6,1.1,2.9,1.9c2.7,1.8,4.7,3.4,6,4.8
		c1.6,1.6,2.3,3.7,2.3,6.4c0,1.6-0.2,3.4-1,4.8c-0.5,1.6-1.3,3.5-2.4,6c-1.6,3.4-2.4,5.5-2.4,7.1c0,1.8,1,2.4,2.7,2.4
		c2.3,0,4.7-1,7.2-2.7c2.7-1.8,5.1-4,7.1-6.4c2.3-2.4,3.7-4.8,4.8-7.1l2.7,1.9c-1.6,3.4-3.5,6.4-6.3,9.5c-2.7,3.1-5.5,5.5-8.8,7.2
		c-3.4,1.9-6.4,2.9-9.8,2.9C956.6,332.2,954.3,331.4,952.7,330.1z"/>
	<path class="st3" d="M981,330.4c-2.7-2.4-4-5.8-4-9.5c0-4.2,1.3-8.8,4.2-14c2.9-4.8,6.6-9.2,11.1-12.7c4.5-3.4,8.8-5.1,13.4-5.1
		c2.3,0,4.2,0.6,5.8,1.8c1.6,1.1,2.3,3.1,2.3,5.8c0,3.5-1.3,6.9-4,10c-2.7,3.1-6.3,5.8-10.6,7.7c-4.5,1.9-8.7,3.4-13.4,3.7
		c-0.2,0.6-0.2,1.6-0.2,2.7c0,1.9,0.5,3.7,1.6,5.8c1.1,2.1,3.4,2.9,6.9,2.9c4.5,0,9.2-1.8,13.7-5.5c4.7-3.7,8.4-8.2,11.3-13.7
		l2.3,1.8c-2.9,6.6-7.1,11.9-12.7,15.9c-5.5,4-11.3,6.3-17.1,6.3C987.3,334.3,983.6,333,981,330.4z M996.1,311
		c3.4-1.8,6-4.2,8.4-6.9s3.4-5.3,3.4-8c0-1-0.2-1.3-0.5-1.8c-0.2-0.2-0.6-0.5-1.3-0.5c-2.3,0-4.5,1.1-7.1,3.1
		c-2.7,1.9-4.8,4.7-7.1,7.7c-2.3,3.1-3.7,6.3-4.7,9.3C990,313.9,992.9,312.7,996.1,311z"/>
	<path class="st3" d="M1065.6,336.7c-2.3-1.6-3.4-4-3.4-7.6c0-1.9,0.5-4.5,1.1-7.2c0.6-2.7,1.9-6.6,3.5-11.7
		c2.7-8.4,4.8-15.9,6.4-22.4c1.6-6.6,2.3-13.4,2.3-20.1c0-4.2-0.5-7.6-1.6-9.8c-1-2.3-2.7-3.4-5.3-3.4c-2.4,0-4.5,1-6,2.7
		c-1.6,1.8-2.7,4-3.5,6.6c-0.6,2.7-1.1,5.1-1.1,7.6c0,2.7,0.5,5.1,1.8,7.1c-3.5,0-6-1-7.7-2.4c-1.8-1.4-2.4-3.7-2.4-6.4
		c0-3.1,1-6.3,2.9-9.3c1.9-3.1,4.7-5.8,7.7-7.7c3.4-1.9,6.9-3.1,10.6-3.1c4.8,0,8.7,1.8,11.3,5.5c2.7,3.5,4,8.7,4,15.1
		c0,4.8-0.6,10.1-1.9,15.4s-3.4,12.2-6,20.6c-1.9,6.4-3.5,11.6-4.5,14.8c-1,3.4-1.3,6.4-1.3,9.2c0,1.3,0.2,2.3,0.5,2.9
		c0.5,0.6,1.1,1,1.9,1c4.2,0,9.3-3.5,15.4-10.9c6.1-7.4,11.6-15.9,16.2-26.2c4.7-10.3,6.9-18.8,6.9-26.4c0-7.1-2.4-11.6-7.2-13.4
		c1-1.9,2.3-3.5,3.5-4.7c1.6-1.1,2.9-1.6,4.2-1.6s2.7,0.6,4,1.8c1.3,1.1,2.4,2.9,3.1,5.1c1,2.3,1.1,4.7,1.1,7.6
		c0,7.7-2.9,17.7-8.4,29.4c-5.5,11.7-12.4,22.2-20.1,30.9c-8,8.8-14.8,13-21.1,13C1070.1,339,1067.7,338.3,1065.6,336.7z"/>
	<path class="st3" d="M1119.2,329.8c-1.8-1.8-2.7-4.2-2.7-7.1s1-6.9,2.4-11.9c1.6-5.1,3.7-9.5,6.4-13.4c2.4-3.7,5.1-5.8,7.7-5.8
		c1,0,1.8,0.2,2.4,1c0.6,0.6,1,1.3,1,2.4c0,0.6-0.2,1.6-1,2.7c-0.6,1.1-1.6,2.9-2.9,4.8c-2.4,4-4.2,7.2-5.5,10.5
		c-1.3,2.9-1.9,5.8-1.9,8.4c0,2.3,0.5,3.7,1.1,4.7c1,1,1.9,1.1,3.7,1.1c5.8,0,11.6-5.5,17.2-16.9l1.8,1.8c-2.7,6.4-6,11.6-10,15.1
		s-8.2,5.5-12.9,5.5C1123.2,332.7,1120.8,331.9,1119.2,329.8z M1135.4,281.5c-1.1-0.6-1.6-1.8-1.6-3.4c0-1.8,1-3.1,2.9-4.5
		c1.9-1.3,4-1.9,6-1.9c3.1,0,4.7,1.3,4.7,4.2c0,1.6-1,3.1-2.4,4.5c-1.8,1.6-3.5,2.3-5.5,2.3C1137.9,282.7,1136.6,282.3,1135.4,281.5
		z"/>
	<path class="st3" d="M1146.5,330.4c-2.7-2.4-4-5.8-4-9.5c0-4.2,1.3-8.8,4.2-14c2.9-4.8,6.6-9.2,11.1-12.7c4.5-3.4,8.8-5.1,13.4-5.1
		c2.3,0,4.2,0.6,5.8,1.8c1.6,1.1,2.3,3.1,2.3,5.8c0,3.5-1.3,6.9-4,10c-2.7,3.1-6.3,5.8-10.6,7.7s-8.7,3.4-13.4,3.7
		c-0.2,0.6-0.2,1.6-0.2,2.7c0,1.9,0.5,3.7,1.6,5.8c1.1,2.1,3.4,2.9,6.9,2.9c4.5,0,9.2-1.8,13.7-5.5c4.7-3.7,8.4-8.2,11.3-13.7
		l2.3,1.8c-2.9,6.6-7.1,11.9-12.7,15.9c-5.5,4-11.3,6.3-17.1,6.3C1152.7,334.3,1149.1,333,1146.5,330.4z M1161.5,311
		c3.4-1.8,6-4.2,8.4-6.9s3.4-5.3,3.4-8c0-1-0.2-1.3-0.5-1.8c-0.2-0.2-0.6-0.5-1.3-0.5c-2.3,0-4.5,1.1-7.1,3.1
		c-2.7,1.9-4.8,4.7-7.1,7.7c-2.3,3.1-3.7,6.3-4.7,9.3C1155.4,313.9,1158.3,312.7,1161.5,311z"/>
	<path class="st3" d="M1212.3,329.3c-1-0.6-1.3-1.6-1.3-2.9c0-1.3,0.6-2.4,2.3-3.5c1.6-1.1,3.1-1.6,4.8-1.6c2.4,0,3.7,1.1,3.7,3.4
		c0,1.3-0.6,2.7-1.9,3.7c-1.3,1.1-2.9,1.8-4.5,1.8C1214.3,330.4,1213.2,330.1,1212.3,329.3z M1217.8,317.4c0-2.4,0.5-5.3,1.8-8.7
		s2.7-7.6,4.5-12.2c5.8-14.8,10.6-26.4,14.6-34.6c4-8.2,7.6-12.2,10.5-12.2c1,0,1.6,0.5,2.3,1.1c0.6,0.6,1,1.3,1,2.3
		c0,1.9-2.3,7.2-6.4,16.2c-4.2,8.8-9.2,18.2-14.5,28.2c-5.3,9.8-9.3,16.6-12.2,20.6L1217.8,317.4z"/>
</g>
</svg>
