<?xml version="1.0" encoding="utf-8"?>
<!-- Generator: Adobe Illustrator 23.1.1, SVG Export Plug-In . SVG Version: 6.00 Build 0)  -->
<svg version="1.1" id="Calque_1" xmlns="http://www.w3.org/2000/svg" xmlns:xlink="http://www.w3.org/1999/xlink" x="0px" y="0px"
	 viewBox="0 0 624 498" style="enable-background:new 0 0 624 498;" xml:space="preserve">
<style type="text/css">
	.st0{fill:#FFFFFF;}
	.st1{display:none;fill:none;stroke:#000000;stroke-width:0.2308;stroke-miterlimit:10;}
	.st2{fill:#B57EB4;}
	.st3{fill:#954694;}
	.st4{fill:#DF3114;}
	.st5{fill:#EB6808;}
	.st6{fill:#FFD600;}
	.st7{fill:#70B62C;}
	.st8{fill:#3E59A5;}
</style>
<rect x="-0.2" y="-0.1" class="st0" width="624.4" height="498.1"/>
<g>
	<line class="st1" x1="219.1" y1="77.6" x2="309.3" y2="264.9"/>
	<line class="st1" x1="351.4" y1="55.7" x2="339.8" y2="263.3"/>
	<line class="st1" x1="488.7" y1="109.6" x2="356.8" y2="270.4"/>
	<line class="st1" x1="567.8" y1="243.7" x2="363.5" y2="282.3"/>
	<path class="st2" d="M371.3,342.4c-10,17.5-20.2,31.1-30.4,40.8c-10.3,9.7-18.8,14.5-25.6,14.5c-4,0-6.9-1.6-8.9-4.7
		c-2-3.2-3-6.7-3-10.7c0-4.4,1.2-9.3,3.5-14.5c2.3-5.2,5.5-11.3,9.5-18c0.5-0.7,1.8-3.1,4-7.2c2.2-4.1,3.3-7.1,3.3-8.9
		c0-2.3-1.6-4.3-4.7-5.8c-3.2-1.5-6.2-2.5-9.3-3c-14.5,21.2-28,39.3-40.6,54.1c-12.6,14.8-23.6,22.2-32.9,22.2
		c-6.3,0-9.5-4.5-9.5-13.6c0-11.4,3.8-25.1,11.4-41c7.6-15.9,17-29.5,28.4-41c11.3-11.4,22.1-17.2,32.4-17.2
		c5.8,0,10.1,1.8,12.9,5.4c2.8,3.6,4.2,8.3,4.2,14.2c0,4-0.6,8-1.8,12.2c5.4,0,9.6-1.2,12.6-3.5c3-2.3,4.5-6.2,4.5-11.5
		c0-7.7-3-14-9.1-18.9c-6.1-4.9-13.6-7.3-22.8-7.3c-14.5,0-29.3,5.9-44.4,17.8c-14.9,11.7-27.3,25.9-37.1,42.6
		c0.4,2.9,0.7,5.9,0.7,8.9c0,12.6-3.7,24.8-11.1,36.6c-1.4,2.3-3,4.5-4.6,6.7c0.7,6.9,3,12.3,6.9,16.4c4.8,5,11,7.5,18.7,7.5
		c8.2,0,16.4-3.3,24.7-9.8c8.3-6.5,17.7-16.8,28.2-30.8c-0.7,3.7-1,7.1-1,10.2c0,6.8,2.2,12.5,6.5,17.3c4.3,4.8,10.6,7.2,18.7,7.2
		c8.2,0,16.7-2.7,25.5-8c8.9-5.4,17.2-12.9,24.9-22.6c7.7-9.7,14-20.7,18.9-33.1L371.3,342.4z"/>
	<g>
		<path class="st3" d="M96.5,418.6c-8.1-4.4-14.1-10-17.9-17c-3.8-6.9-5.7-14-5.7-21.1c0-8.6,2.3-16.3,7-23.1
			c4.7-6.8,11.2-10.2,19.6-10.2c2.8,0,6.3,0.4,10.5,1.2c-3.6,3-6.6,7.3-9,12.8c-2.4,5.5-3.6,11-3.6,16.4c0,5.6,1.4,11,4.2,16.2
			c2.8,5.2,6.6,9.5,11.5,12.8c4.9,3.3,10.4,5,16.7,5c7.8,0,15.3-2.7,22.6-8c7.3-5.3,13.2-12.6,17.9-22c4.6-9.4,6.9-19.9,6.9-31.5
			c0-12.8-3.1-24.3-9.5-34.5c-6.3-10.2-16.6-17.2-31-21c10.6-4.6,20-11,28.2-19.2c8.2-8.2,14.6-17,19.1-26.5
			c4.5-9.5,6.8-18.4,6.8-26.8c0-9-2.6-15.6-7.8-20c-5.2-4.3-11.6-6.5-19.2-6.5c-8.8,0-16.6,2.6-23.2,7.8
			c-6.7,5.2-10.1,12.1-10.1,20.7c0,6.4,2,13.3,6,20.7c-1.2,2.6-3.3,5-6.1,7.2c-2.9,2.2-5.8,3.3-8.5,3.3c-4.2,0-7.6-2.7-10.2-8.2
			c-2.6-5.5-3.9-11.5-3.9-18.1c0-9.2,2.9-17.2,8.5-24.1c5.7-6.9,13.1-12.2,22.2-15.9c9.1-3.7,18.8-5.5,29-5.5c8.8,0,17.1,1.6,24.9,5
			c7.8,3.3,14.1,8.2,18.9,14.5c4.8,6.4,7.2,14,7.2,22.8c0,8.2-2.1,16.7-6.2,25.5c-4.1,8.8-9.8,16.8-17.1,24
			c-7.3,7.2-15.6,12.5-24.8,15.9c14.6,5,25.3,12.9,32.2,23.7c6.9,10.8,10.3,22.1,10.3,33.9c0,12.6-3.7,24.8-11.1,36.6
			c-7.4,11.8-17.6,21.4-30.6,28.9c-13,7.5-27.6,11.2-43.8,11.2C115,425.2,104.6,423,96.5,418.6z"/>
	</g>
	<path class="st4" d="M275.2,110c1.2,2.4,2.1,4.8,2.7,7.2l0.7,3l0,0L302,226.7c1,4.7-1.3,9.4-5.6,11.5l0,0
		c-4.3,2.1-9.4,0.9-12.4-2.8l-68.8-84.9l-1.8-2.2c-1.4-1.8-2.6-3.8-3.6-6c-9-18.7-0.6-41.3,18.7-49.5C246,85.4,266.6,93,275.2,110z"
		/>
	<path class="st5" d="M384.9,111.2c-0.1,2.6-0.5,5.2-1.1,7.6l-0.9,3l0,0l-31,104.5c-1.4,4.6-5.7,7.6-10.4,7.3l0,0
		c-4.8-0.3-8.7-3.8-9.5-8.5l-19.2-107.6l-0.5-2.8c-0.3-2.3-0.4-4.6-0.3-7c1.2-20.7,19.4-36.4,40.3-34.3
		C371.2,75.5,385.6,92.2,384.9,111.2z"/>
	<path class="st6" d="M483,174.1c-1.6,2.1-3.4,3.9-5.4,5.5l-2.5,1.9l0,0l-86.7,66.1c-3.8,2.9-9.1,2.8-12.7-0.2l0,0
		c-3.7-3-4.8-8.2-2.7-12.5l48-98.2l1.3-2.6c1.1-2,2.4-4,3.9-5.8c13.2-16.1,37.2-18,52.7-3.9C492.9,137.2,494.8,159.2,483,174.1z"/>
	<path class="st7" d="M522,289.5c-2.6,0.5-5.1,0.8-7.7,0.8l-3.1-0.1l-0.1,0l-108.9-5c-4.8-0.2-8.7-3.7-9.6-8.4v0
		c-0.9-4.7,1.6-9.4,5.9-11.3l99.8-44.5l2.6-1.2c2.1-0.9,4.4-1.5,6.7-2c20.4-3.9,40,10.1,42.9,30.9
		C553.3,267.6,540.7,285.6,522,289.5z"/>
	<path class="st8" d="M479.4,393.5c-2.4-1.1-4.7-2.3-6.7-3.8l-2.4-1.9l0,0l-85.9-67.1c-3.8-2.9-5-8.1-3-12.4l0,0
		c2-4.3,6.7-6.7,11.4-5.8L499.8,324l2.8,0.6c2.2,0.5,4.5,1.3,6.6,2.3c18.9,8.7,26.8,31.4,17.1,50
		C517.5,393.8,496.8,401.1,479.4,393.5z"/>
	<line class="st1" x1="543.2" y1="382.7" x2="354.3" y2="295.9"/>
</g>
</svg>
